# xmcd
#
# Track frame offsets:
#	150
#	13827
#	29597
#	44772
#	58039
#	72735
#	85385
#	101810
#	117070
#	133335
#	148740
#	162867
#	174695
#	188325
#	201680
#	215380
#	228790
#	243750
#
# Disc length: 3502 seconds
#
# Revision: 1
# Processed by: cddbd v1.5.2PL0 Copyright (c) Steve Scherf et al.
# Submitted via: audiograbber 1.83.01
#
DISCID=120dac12
DTITLE=David Alexander - The Concert
DYEAR=1994
DGENRE=National Folk
TTITLE0=My Little Lady
TTITLE1=Lady Lay Down
TTITLE2=Why Don't We Spend The Night
TTITLE3=Rhondda
TTITLE4=Boy From Nowhere
TTITLE5=T.L.C.
TTITLE6=One Day
TTITLE7=Wind Beneath My Wings
TTITLE8=Sign Of The Times
TTITLE9=Working Man
TTITLE10=The Answer To Everything
TTITLE11=Feed The Fire
TTITLE12=Love Is All
TTITLE13=Everything Love's Supposed To Be
TTITLE14=Am I That Easy To Forget
TTITLE15=Another Song
TTITLE16=More And More
TTITLE17=My Wales
EXTD=
EXTT0=
EXTT1=
EXTT2=
EXTT3=
EXTT4=
EXTT5=
EXTT6=
EXTT7=
EXTT8=
EXTT9=
EXTT10=
EXTT11=
EXTT12=
EXTT13=
EXTT14=
EXTT15=
EXTT16=
EXTT17=
PLAYORDER=
